# xmcd
#
# Track frame offsets:
# 150
# 13304
# 26190
# 40474
# 55000
# 69064
# 82210
# 98154
# 111642
# 125841
# 139263
# 150856
# 165961
# 179071
#
# Disc length: 2595 seconds
#
#
# Revision: 0
# Processed by: cddbd v1.5.1PL0 Copyright (c) Steve Scherf et al.
# Submitted via: FreeRIP 2.942 
#
DISCID=c30a210e
DTITLE=STELIOS KAZANTZIDIS ´70-´80 - H ZVH MOY OLH
DYEAR=1970
DGENRE=Country
TTITLE0=KAZANTZIDIS - H ZVH MOY OLH
TTITLE1=KAZANTZIDIS - TO AGRIOLOYLOYDO
TTITLE2=KAZANTZIDIS - PARA T`AXNARIA MOY
TTITLE3=KAZANTZIDIS - TH PARASKEYH TO BRADY
TTITLE4=KAZANTZIDIS - KAPSE KAPSE
TTITLE5=KAZANTZIDIS - O GIALINOS KOSMOS
TTITLE6=KAZANTZIDIS - MOSOS
TTITLE7=KAZANTZIDIS - GYRIZV AP`TH NYXTA
TTITLE8=KAZANTZIDIS - EKLEISE MIA ISTORIA
TTITLE9=KAZANTZIDIS - TO MVRO MOY
TTITLE10=KAZANTZIDIS - TO 8OLVMENO MOY MYALO
TTITLE11=KAZANTZIDIS - TO PSVMI THS KSENHTEIAS
TTITLE12=PANV STOY TOIXOY TO KARFI
TTITLE13=KAZANTZIDIS - TO DIABATHRIO
EXTD=
EXTT0=
EXTT1=
EXTT2=
EXTT3=
EXTT4=
EXTT5=
EXTT6=
EXTT7=
EXTT8=
EXTT9=
EXTT10=
EXTT11=
EXTT12=
EXTT13=
PLAYORDER=
